<?xml version="1.0" encoding="utf-8"?>
<!-- Generator: Adobe Illustrator 26.5.0, SVG Export Plug-In . SVG Version: 6.00 Build 0)  -->
<svg version="1.1" id="Layer_1" xmlns="http://www.w3.org/2000/svg" xmlns:xlink="http://www.w3.org/1999/xlink" x="0px" y="0px"
	 viewBox="0 0 490.5 103.4" style="enable-background:new 0 0 490.5 103.4;" xml:space="preserve">
<style type="text/css">
	.st0{fill:#FFFFFF;}
	.st1{fill:none;stroke:#FFFFFF;stroke-width:6;stroke-miterlimit:10;}
</style>
<g id="a">
</g>
<g id="b">
	<g id="c">
		<g>
			<path class="st0" d="M333.4,1.3h7L318.6,73l-4.5-6.9L333.4,1.3z M252.6,63.7l-4.2,9.6l-20-72h7.2L252.6,63.7z"/>
			<path class="st0" d="M7.2,66.8c2.7,11.9,10.6,18.9,25.4,18.9c16.4,0,22.7-8.2,22.7-17.9S50.7,51.5,31,46.6
				C12,41.9,3.8,35.7,3.8,22.8C3.8,11,12.4,0,31.6,0s28,12,29.2,22.9h-7.2c-2-9.6-8.3-16.5-22.4-16.5c-12.9,0-20,6-20,16
				s5.9,13.7,22.4,17.8c25.2,6.3,28.9,16.4,28.9,27.1c0,13.2-9.6,24.6-30.3,24.6C9.9,91.9,1.7,78.8,0,66.8H7.2z"/>
			<path class="st0" d="M82.2,1.3h6.9v46.6c7.2-6.9,32.8-31,48.8-46.6h9.2l-40.2,38.2l42.5,51.5h-8.6l-38.9-47L89.1,55.2v35.7h-6.9
				L82.2,1.3L82.2,1.3z"/>
			<path class="st0" d="M214.8,46.8h-45.7v37.6h50.1l-1,6.4h-55.9V1.3h54.9v6.4h-48v32.8h45.7C214.8,40.5,214.8,46.9,214.8,46.8z"/>
			<path class="st0" d="M358.3,59.9l-11.4,31h-7l32.9-89.6h8.2l34.3,89.6h-7.5l-11.6-31L358.3,59.9L358.3,59.9z M393.7,53.5
				c-10-26.6-15.1-39.4-16.9-45.4h-0.1c-2.2,6.8-7.9,22.7-16,45.4H393.7z"/>
			<path class="st1" d="M415.2,100.4h-59.4c-42,0-42.3-71.7-71.8-71.7c-31.3,0-30.7,71.7-75.9,71.7H0"/>
			<polygon class="st0" points="490.5,89.9 482.6,89.9 456.1,50.4 450.5,58.9 447.2,63.8 429.9,89.9 422,89.9 451.9,45.4 
				445.8,36.1 442.3,30.9 423.3,2.4 431.1,2.4 456.2,39.9 465.5,26.2 481.8,2.4 489.6,2.4 469.6,31.2 467.5,34.2 460.1,44.9 
				470,59.4 471.2,61.2 			"/>
		</g>
	</g>
</g>
</svg>
