<?xml version="1.0" encoding="UTF-8"?><svg xmlns="http://www.w3.org/2000/svg" viewBox="0 0 490.52 103.43"><defs><style>.d{fill:none;stroke:#196eb3;stroke-miterlimit:10;stroke-width:6px;}.e{fill:#fff;}.f{fill:#196eb3;}</style></defs><g id="a"/><g id="b"><g id="c"><g><path class="e" d="M333.44,1.28h7.04l-21.93,71.72-4.54-6.92L333.44,1.28Zm-80.84,62.45l-4.17,9.57L228.47,1.28h7.17l16.96,62.45Z"/><path class="e" d="M7.17,66.82c2.69,11.9,10.62,18.94,25.35,18.94,16.38,0,22.66-8.19,22.66-17.92s-4.48-16.38-24.19-21.25C12.03,41.86,3.84,35.71,3.84,22.79,3.84,11.01,12.42,0,31.62,0s28.03,12.03,29.19,22.91h-7.17c-2.05-9.6-8.32-16.51-22.4-16.51-12.93,0-19.97,6.02-19.97,16s5.89,13.7,22.4,17.79c25.22,6.27,28.93,16.38,28.93,27.14,0,13.18-9.6,24.58-30.34,24.58C9.86,91.91,1.66,78.85,0,66.82H7.17Z"/><path class="e" d="M82.18,1.28h6.91V47.87c7.17-6.91,32.77-30.98,48.77-46.59h9.22l-40.19,38.15,42.5,51.46h-8.58l-38.91-46.98-12.8,11.26v35.71h-6.91V1.28Z"/><path class="e" d="M214.78,46.85h-45.7v37.63h50.05l-1.02,6.4h-55.94V1.28h54.91V7.68h-48V40.45h45.7v6.4Z"/><path class="e" d="M358.27,59.91l-11.39,30.98h-7.04L372.73,1.28h8.19l34.31,89.6h-7.55l-11.65-30.98h-37.76Zm35.46-6.4c-9.98-26.62-15.1-39.43-16.9-45.44h-.13c-2.18,6.78-7.94,22.66-16,45.44h33.03Z"/><path class="d" d="M415.23,100.43h-59.39c-42.01,0-42.31-71.71-71.8-71.71-31.32,0-30.66,71.71-75.93,71.71H0"/><path class="f" d="M481.38,45.35c0,6.16-2.62,11.71-6.82,15.63l-1.25-1.86-2.19-3.24c2.53-2.77,4.08-6.47,4.08-10.53s-1.68-8.07-4.41-10.87l2.14-3.09,1.34-1.93c4.37,3.93,7.11,9.59,7.11,15.89Z"/><polygon class="e" points="490.52 89.88 482.56 89.88 456.09 50.36 450.45 58.86 447.2 63.75 429.87 89.88 422.04 89.88 451.93 45.37 445.75 36.08 442.3 30.9 423.3 2.36 431.13 2.36 456.22 39.87 465.53 26.24 481.82 2.36 489.64 2.36 469.61 31.2 467.52 34.22 460.13 44.86 469.97 59.43 471.19 61.25 490.52 89.88"/></g></g></g></svg>